<svg width="37" height="36" viewBox="0 0 37 36" fill="none" xmlns="http://www.w3.org/2000/svg">
<path d="M16.3205 3.37543V2.98253C16.3205 1.72365 17.341 0.703125 18.5999 0.703125C19.8588 0.703125 20.8793 1.72365 20.8793 2.98253V3.37543H16.3205ZM29.2412 19.547H35.8967C35.8967 21.644 34.1968 23.3439 32.0998 23.3439H5.09999C3.00305 23.3439 1.3031 21.644 1.3031 19.547H29.2412Z" fill="#E8C3EF"/>
<path d="M32.9164 23.9647C32.6564 23.7408 32.3278 23.6124 31.9849 23.6007C31.642 23.589 31.3054 23.6947 31.0308 23.9004L27.3321 26.6704C25.8998 27.743 24.1327 28.2711 22.3468 28.1604L21.743 28.123L21.7214 28.1214C21.7526 28.0705 21.7821 28.0182 21.8083 27.9633C22.2425 27.0539 21.8079 25.9676 20.8662 25.6087L15.8414 23.6937C14.6193 23.228 13.2665 23.2405 12.0532 23.7288L6.71719 25.8762L9.06466 31.31L21.4403 34.1187C22.1571 34.1717 22.8772 34.082 23.5591 33.8546C24.2409 33.6273 24.8709 33.267 25.4125 32.7945L27.4519 31.0151L30.8741 28.0292L32.924 26.2406C33.6145 25.638 33.6111 24.5629 32.9164 23.9647Z" fill="#FCCDAC"/>
<path d="M1.30457 25.9307L5.48114 23.9078L10.0171 33.2734L5.84055 35.2963L1.30457 25.9307Z" fill="#862996"/>
<path d="M2.84998 19.5473C2.84998 10.8488 9.90144 3.79736 18.5999 3.79736C27.2984 3.79736 34.3498 10.8488 34.3498 19.5473H2.84998Z" fill="#E8C3EF"/>
<path d="M29.0793 28.8999C28.893 28.9003 28.7144 28.974 28.5822 29.1052C28.4509 29.2377 28.3769 29.4165 28.3762 29.603C28.3762 29.7879 28.4513 29.9694 28.5822 30.1001C28.713 30.2309 28.8944 30.3061 29.0793 30.3061C29.2642 30.3061 29.4456 30.231 29.5763 30.1001C29.7077 29.968 29.7818 29.7894 29.7824 29.603C29.7824 29.4181 29.7072 29.2367 29.5763 29.1052C29.4441 28.974 29.2655 28.9002 29.0793 28.8999ZM5.87417 32.5575C6.05909 32.5575 6.2398 32.4823 6.37128 32.3514C6.50253 32.2192 6.57652 32.0407 6.5773 31.8544C6.5773 31.6687 6.50206 31.488 6.37128 31.3566C6.2405 31.2258 6.05909 31.1512 5.87417 31.1512C5.68925 31.1512 5.50784 31.2258 5.37706 31.3566C5.24568 31.489 5.17168 31.6678 5.17104 31.8544C5.17104 32.0393 5.24628 32.22 5.37706 32.3514C5.50919 32.4828 5.68781 32.5569 5.87417 32.5575ZM30.5734 12.5136C28.8554 9.50206 25.9612 7.24629 22.6327 6.32456C22.2584 6.22106 21.8712 6.44029 21.7674 6.81457C21.6638 7.18877 21.8831 7.5762 22.2574 7.67991C25.2307 8.50327 27.8165 10.5191 29.3519 13.2104C29.3976 13.2907 29.4587 13.3611 29.5317 13.4177C29.6046 13.4743 29.688 13.516 29.7771 13.5403C29.8661 13.5647 29.9591 13.5713 30.0507 13.5597C30.1423 13.5481 30.2308 13.5185 30.311 13.4728C30.6484 13.2803 30.7658 12.8509 30.5734 12.5136ZM19.103 7.25318L19.17 7.25339H19.1742C19.5606 7.25339 19.875 6.94127 19.8772 6.55434C19.8795 6.16607 19.5665 5.84945 19.1782 5.84713L19.103 5.84692C18.7148 5.84692 18.3999 6.16178 18.3999 6.55005C18.3999 6.93832 18.7147 7.25318 19.103 7.25318Z" fill="#00030A"/>
<path d="M36.6 19.547C36.6 19.1587 36.2851 18.8438 35.8969 18.8438H35.0374C34.8649 14.713 33.1754 10.8542 30.2342 7.91293C27.8417 5.5204 24.8419 3.95657 21.5826 3.36313V2.98253C21.5826 1.33791 20.2447 0 18.6001 0C16.9555 0 15.6175 1.33791 15.6175 2.98253V3.36313C12.3583 3.95664 9.35844 5.52047 6.96597 7.91293C4.02472 10.8542 2.33524 14.713 2.16269 18.8438H1.30326C0.914993 18.8438 0.600132 19.1587 0.600132 19.547C0.600132 21.617 2.00554 23.364 3.91208 23.8866L0.996767 25.2987C0.647242 25.468 0.501202 25.8885 0.670445 26.238C0.839828 26.5877 1.26058 26.7334 1.60975 26.5643L5.15338 24.8478L9.07676 32.9477L5.53314 34.6641C5.18361 34.8333 5.03757 35.2539 5.20682 35.6034C5.28813 35.7712 5.43277 35.8999 5.60893 35.9611C5.7851 36.0223 5.97835 36.011 6.1462 35.9297L10.3226 33.9067C10.4904 33.8254 10.6191 33.6808 10.6803 33.5046C10.7415 33.3284 10.7302 33.1352 10.649 32.9674L10.3169 32.2819L20.4006 34.3321C20.8695 34.4272 21.3468 34.4751 21.8252 34.4749C23.5611 34.4749 25.273 33.8493 26.5967 32.6943L27.9141 31.5448C28.2068 31.2895 28.237 30.8453 27.9817 30.5527C27.7263 30.26 27.2822 30.2299 26.9897 30.4852L25.6723 31.6346C24.3136 32.82 22.4476 33.3132 20.6808 32.954L9.54596 30.6902L7.4403 26.343L12.3158 24.3809C13.368 23.9574 14.5313 23.9466 15.5911 24.3505L20.616 26.2655C20.8857 26.3683 21.0933 26.5725 21.2005 26.8404C21.3077 27.1085 21.2983 27.3996 21.1739 27.66C21.0701 27.8796 20.891 28.0547 20.6692 28.1537C20.4474 28.2528 20.1975 28.2691 19.9646 28.1999L15.9003 27.0071C15.5279 26.8982 15.137 27.1111 15.0275 27.4838C14.9182 27.8565 15.1316 28.2471 15.5042 28.3565L19.5686 29.5493C19.7985 29.6167 20.0305 29.6492 20.2592 29.6491C20.5983 29.6491 20.9336 29.5776 21.2432 29.4394C21.5529 29.3011 21.8299 29.0992 22.0563 28.8467L22.3036 28.862C22.4733 28.8725 22.6427 28.8778 22.812 28.8778C24.5936 28.8774 26.3272 28.3004 27.7537 27.233L31.4525 24.463C31.7517 24.2389 32.1745 24.2534 32.4577 24.4973C32.6369 24.6515 32.736 24.8667 32.7368 25.1031C32.7376 25.3395 32.6399 25.5553 32.4617 25.7108L30.4118 27.4994C30.1192 27.7547 30.0889 28.1989 30.3442 28.4915C30.5995 28.7841 31.0436 28.8143 31.3363 28.559L33.3862 26.7704C33.8102 26.4007 34.077 25.8831 34.1323 25.3233C34.1876 24.7635 34.0272 24.2038 33.6839 23.7582C35.3859 23.1161 36.6 21.471 36.6 19.547ZM17.0238 2.98253C17.0238 2.11339 17.7309 1.40626 18.6001 1.40626C19.4692 1.40626 20.1763 2.11339 20.1763 2.98253V3.16858C19.6524 3.11897 19.1264 3.09405 18.6001 3.0939C18.0703 3.0939 17.5445 3.11936 17.0238 3.16858V2.98253ZM18.6001 4.50016C26.6612 4.50016 33.2613 10.8722 33.6299 18.8438H3.57022C3.9388 10.8723 10.539 4.50016 18.6001 4.50016ZM6.32802 24.0469H9.37925L6.82577 25.0745L6.32802 24.0469ZM26.9108 26.1076C25.6874 27.0227 24.193 27.5022 22.6656 27.4695C22.7063 27.0785 22.6515 26.6834 22.506 26.3182C22.3811 26.007 22.1932 25.725 21.9541 25.4898C21.715 25.2546 21.4299 25.0714 21.1166 24.9516L18.7428 24.0469H29.6623L26.9108 26.1076ZM32.1001 22.6407H5.10015C3.63603 22.6407 2.40619 21.6184 2.08697 20.25H35.1131C34.794 21.6184 33.5641 22.6407 32.1001 22.6407Z" fill="#00030A"/>
</svg>
