<svg width="33" height="32" viewBox="0 0 33 32" fill="none" xmlns="http://www.w3.org/2000/svg">
<g clip-path="url(#clip0_24_418)">
<path d="M25.4 0.5H31.9V5.5H25.4V0.5Z" fill="#ADCDF7"/>
<path d="M27.7085 20.8335L31.3985 24.5235L28.9235 26.9985L25.2335 23.3085" fill="#A1A1A1"/>
<path d="M8.90003 20L7.55003 29.9C7.50822 30.2049 7.3574 30.4842 7.12548 30.6865C6.89356 30.8887 6.59624 31.0001 6.28854 31C6.11206 31 5.93753 30.9633 5.776 30.8922C5.61448 30.8211 5.4695 30.7172 5.35026 30.5871C5.23103 30.457 5.14014 30.3036 5.08338 30.1365C5.02662 29.9694 5.00522 29.7923 5.02053 29.6165L5.90003 19.5V11.5L3.70003 16.7825C3.61141 16.9952 3.46177 17.1768 3.27 17.3045C3.07823 17.4322 2.85293 17.5002 2.62254 17.5C2.43188 17.5 2.24412 17.4533 2.07571 17.3639C1.9073 17.2745 1.76335 17.1453 1.65648 16.9874C1.54961 16.8295 1.48307 16.6478 1.46268 16.4582C1.44229 16.2687 1.46868 16.077 1.53953 15.9L4.14553 9.386C4.36819 8.82926 4.75257 8.35202 5.24907 8.01585C5.74558 7.67968 6.33143 7.5 6.93104 7.5H11.869C12.4686 7.5 13.0545 7.67968 13.551 8.01585C14.0475 8.35202 14.4319 8.82926 14.6545 9.386L17.2605 15.9C17.3314 16.077 17.3578 16.2687 17.3374 16.4582C17.317 16.6478 17.2505 16.8295 17.1436 16.9874C17.0367 17.1453 16.8928 17.2745 16.7244 17.3639C16.5559 17.4533 16.3682 17.5 16.1775 17.5C15.9471 17.5002 15.7218 17.4322 15.5301 17.3045C15.3383 17.1768 15.1887 16.9952 15.1 16.7825L12.9 11.5V19.5L13.7795 29.6165C13.7949 29.7923 13.7735 29.9694 13.7167 30.1365C13.6599 30.3036 13.569 30.457 13.4498 30.5871C13.3306 30.7172 13.1856 30.8211 13.0241 30.8922C12.8625 30.9633 12.688 31 12.5115 31C12.2038 31.0001 11.9065 30.8887 11.6746 30.6865C11.4427 30.4842 11.2919 30.2049 11.25 29.9L9.90003 20H8.90003Z" fill="#CA73D9"/>
<path d="M26.7645 18.1219L26.7605 18.1254C27.4866 16.4162 27.5955 14.5076 27.0685 12.727C26.5415 10.9463 25.4114 9.40439 23.872 8.36571C22.3326 7.32703 20.4798 6.85625 18.6313 7.0341C16.7827 7.21195 15.0537 8.02734 13.7406 9.34047C12.4274 10.6536 11.612 12.3827 11.4342 14.2312C11.2563 16.0797 11.7271 17.9325 12.7658 19.4719C13.8045 21.0113 15.3463 22.1414 17.127 22.6684C18.9077 23.1954 20.8163 23.0865 22.5255 22.3604L22.522 22.3644L24.35 24.1924L28.5925 19.9499L26.7645 18.1219Z" fill="#C2C2C2"/>
<path d="M19.4 21C22.7137 21 25.4 18.3137 25.4 15C25.4 11.6863 22.7137 9 19.4 9C16.0863 9 13.4 11.6863 13.4 15C13.4 18.3137 16.0863 21 19.4 21Z" fill="#F2F2F2"/>
<path d="M22.4 14H20.4V12H18.4V14H16.4V16H18.4V18H20.4V16H22.4V14Z" fill="#E65C5E"/>
<path d="M9.40002 7C11.0569 7 12.4 5.65685 12.4 4C12.4 2.34315 11.0569 1 9.40002 1C7.74317 1 6.40002 2.34315 6.40002 4C6.40002 5.65685 7.74317 7 9.40002 7Z" fill="#FFC173"/>
<path d="M16.4 16.5H17.9V18C17.9 18.1326 17.9527 18.2598 18.0465 18.3536C18.1402 18.4473 18.2674 18.5 18.4 18.5H20.4C20.5326 18.5 20.6598 18.4473 20.7536 18.3536C20.8473 18.2598 20.9 18.1326 20.9 18V16.5H22.4C22.5326 16.5 22.6598 16.4473 22.7536 16.3536C22.8473 16.2598 22.9 16.1326 22.9 16V14C22.9 13.8674 22.8473 13.7402 22.7536 13.6464C22.6598 13.5527 22.5326 13.5 22.4 13.5H20.9V12C20.9 11.8674 20.8473 11.7402 20.7536 11.6464C20.6598 11.5527 20.5326 11.5 20.4 11.5H18.4C18.2674 11.5 18.1402 11.5527 18.0465 11.6464C17.9527 11.7402 17.9 11.8674 17.9 12V13.5H16.4C16.2674 13.5 16.1402 13.5527 16.0465 13.6464C15.9527 13.7402 15.9 13.8674 15.9 14V16C15.9 16.1326 15.9527 16.2598 16.0465 16.3536C16.1402 16.4473 16.2674 16.5 16.4 16.5ZM16.9 14.5H18.4C18.5326 14.5 18.6598 14.4473 18.7536 14.3536C18.8473 14.2598 18.9 14.1326 18.9 14V12.5H19.9V14C19.9 14.1326 19.9527 14.2598 20.0465 14.3536C20.1402 14.4473 20.2674 14.5 20.4 14.5H21.9V15.5H20.4C20.2674 15.5 20.1402 15.5527 20.0465 15.6464C19.9527 15.7402 19.9 15.8674 19.9 16V17.5H18.9V16C18.9 15.8674 18.8473 15.7402 18.7536 15.6464C18.6598 15.5527 18.5326 15.5 18.4 15.5H16.9V14.5Z" fill="black"/>
<path d="M2.62502 17.9999C2.95418 18.0005 3.27606 17.9031 3.54968 17.7201C3.8233 17.5371 4.03628 17.2768 4.16152 16.9724L5.40002 13.9999V19.4584L4.52452 29.5499C4.51712 29.6091 4.51394 29.6688 4.51502 29.7284C4.51599 30.1775 4.6873 30.6095 4.99436 30.9372C5.30143 31.265 5.7214 31.464 6.16948 31.4941C6.61756 31.5243 7.06039 31.3833 7.40859 31.0997C7.75678 30.816 7.98441 30.4109 8.04552 29.9659L9.33652 20.4999H9.46352L10.754 29.9624C10.8093 30.3899 11.0209 30.7817 11.348 31.0624C11.6144 31.2948 11.9442 31.4422 12.2951 31.4857C12.6459 31.5292 13.0017 31.4667 13.3168 31.3063C13.6318 31.1459 13.8917 30.895 14.063 30.5858C14.2343 30.2765 14.3092 29.9231 14.278 29.5709L13.544 21.1499C14.6989 22.2566 16.144 23.0132 17.7115 23.3318C19.279 23.6504 20.9047 23.518 22.4 22.9499L23.997 24.5499C24.0908 24.6437 24.2179 24.6963 24.3505 24.6963C24.4831 24.6963 24.6103 24.6437 24.704 24.5499L25.2345 24.0194L28.57 27.3499L29.277 26.6429L25.9405 23.3064L27.7085 21.5384L31.045 24.8749L31.75 24.1699L28.4135 20.8334L28.944 20.3029C29.0378 20.2092 29.0904 20.082 29.0904 19.9494C29.0904 19.8169 29.0378 19.6897 28.944 19.5959L27.35 17.9999C27.9983 16.2912 28.0779 14.4189 27.5769 12.6613C27.076 10.9038 26.0213 9.35476 24.5696 8.24454C23.1179 7.13433 21.3467 6.52219 19.5193 6.49911C17.6919 6.47603 15.9058 7.04324 14.4265 8.11644C14.1002 7.76444 13.7046 7.48359 13.2647 7.29148C12.8249 7.09936 12.35 7.00011 11.87 6.99994H11.1935C11.8514 6.60734 12.3624 6.00971 12.6479 5.29875C12.9334 4.58779 12.9778 3.80278 12.7741 3.06418C12.5705 2.32558 12.1302 1.6742 11.5207 1.20999C10.9112 0.745778 10.1662 0.494385 9.40002 0.494385C8.63386 0.494385 7.88888 0.745778 7.27937 1.20999C6.66986 1.6742 6.22951 2.32558 6.02589 3.06418C5.82227 3.80278 5.86662 4.58779 6.15215 5.29875C6.43768 6.00971 6.9486 6.60734 7.60652 6.99994H6.93002C6.22985 6.99713 5.54512 7.2056 4.9653 7.59809C4.38549 7.99058 3.93755 8.54885 3.68002 9.19994L1.07252 15.7229C0.996499 15.9181 0.956682 16.1255 0.955017 16.3349C0.956209 16.777 1.1327 17.2006 1.44577 17.5127C1.75884 17.8249 2.18293 18.0001 2.62502 17.9999ZM27.8855 19.9499L24.35 23.4854L23.3795 22.5144C24.8834 21.7138 26.1144 20.4829 26.915 18.9789L27.8855 19.9499ZM19.4 7.49994C21.1352 7.4998 22.8167 8.10132 24.1581 9.20199C25.4995 10.3027 26.4178 11.8344 26.7564 13.5362C27.095 15.238 26.8331 17.0046 26.0153 18.5349C25.1974 20.0653 23.8743 21.2647 22.2712 21.9288C20.6682 22.593 18.8844 22.6807 17.224 22.1771C15.5635 21.6735 14.129 20.6098 13.1649 19.1671C12.2008 17.7244 11.7667 15.9921 11.9367 14.2653C12.1067 12.5384 12.8701 10.924 14.097 9.69694C14.7917 8.99826 15.6182 8.44432 16.5284 8.0672C17.4387 7.69009 18.4147 7.49728 19.4 7.49994ZM6.90002 3.99994C6.90002 3.50549 7.04664 3.02214 7.32134 2.61101C7.59605 2.19989 7.98649 1.87946 8.44331 1.69024C8.90012 1.50102 9.40279 1.45151 9.88774 1.54798C10.3727 1.64444 10.8182 1.88254 11.1678 2.23217C11.5174 2.5818 11.7555 3.02726 11.852 3.51221C11.9484 3.99717 11.8989 4.49983 11.7097 4.95665C11.5205 5.41346 11.2001 5.80391 10.7889 6.07861C10.3778 6.35332 9.89447 6.49994 9.40002 6.49994C8.73722 6.49915 8.1018 6.2355 7.63313 5.76683C7.16446 5.29816 6.90081 4.66274 6.90002 3.99994ZM2.00402 16.0854L4.60952 9.57044C4.79347 9.10564 5.11333 8.70712 5.52731 8.42694C5.94129 8.14677 6.43014 7.99795 6.93002 7.99994H11.87C12.202 7.99981 12.5306 8.0661 12.8366 8.1949C13.1425 8.32371 13.4196 8.51242 13.6515 8.74994C13.5645 8.82994 13.4735 8.90344 13.3895 8.98694C11.9786 10.3963 11.109 12.2573 10.9331 14.2438C10.7572 16.2302 11.2863 18.2151 12.4275 19.8504L13.282 29.6559C13.296 29.8098 13.2635 29.9644 13.1887 30.0996C13.114 30.2349 13.0003 30.3446 12.8626 30.4146C12.7248 30.4846 12.5692 30.5116 12.4159 30.4923C12.2625 30.4729 12.1186 30.408 12.0025 30.3059C11.8612 30.1847 11.7697 30.0155 11.7455 29.8309L10.3955 19.9309C10.3789 19.8114 10.3195 19.7019 10.2284 19.6227C10.1374 19.5435 10.0207 19.4999 9.90002 19.4999H8.90002C8.77909 19.4999 8.66225 19.5437 8.57115 19.6233C8.48004 19.7028 8.42084 19.8126 8.40452 19.9324L7.05452 29.8324C7.02739 30.026 6.92799 30.2021 6.7763 30.3254C6.62461 30.4486 6.43189 30.5099 6.23687 30.4968C6.04185 30.4838 5.85901 30.3974 5.72509 30.255C5.59117 30.1127 5.51612 29.9249 5.51502 29.7294C5.51437 29.7054 5.51537 29.6813 5.51802 29.6574L6.40002 19.4999V11.4999C6.40004 11.3844 6.36002 11.2723 6.28675 11.1829C6.21349 11.0935 6.11151 11.0323 5.99817 11.0096C5.88483 10.9869 5.76713 11.0042 5.6651 11.0585C5.56306 11.1128 5.483 11.2008 5.43852 11.3074L3.23852 16.5889C3.17961 16.7316 3.07307 16.8494 2.93704 16.9223C2.80101 16.9952 2.64392 17.0186 2.49253 16.9887C2.34114 16.9587 2.20483 16.8772 2.10681 16.758C2.0088 16.6388 1.95515 16.4893 1.95502 16.3349C1.95623 16.2495 1.97282 16.165 2.00402 16.0854ZM27.4 0.499939H31.9V1.49994H27.4V0.499939ZM27.4 2.49994H31.9V3.49994H27.4V2.49994ZM27.4 4.49994H31.9V5.49994H27.4V4.49994ZM25.4 0.499939H26.4V1.49994H25.4V0.499939ZM25.4 2.49994H26.4V3.49994H25.4V2.49994ZM25.4 4.49994H26.4V5.49994H25.4V4.49994Z" fill="black"/>
<path d="M14.804 19.596C15.713 20.5051 16.8712 21.1242 18.1321 21.3751C19.393 21.6259 20.7 21.4972 21.8877 21.0053C23.0755 20.5133 24.0907 19.6802 24.8049 18.6113C25.5192 17.5423 25.9004 16.2856 25.9004 15C25.9004 13.7144 25.5192 12.4577 24.8049 11.3887C24.0907 10.3198 23.0755 9.48669 21.8877 8.99473C20.7 8.50278 19.393 8.37409 18.1321 8.62494C16.8712 8.87579 15.713 9.49491 14.804 10.404C14.1979 11.0061 13.7168 11.7221 13.3885 12.5109C13.0602 13.2997 12.8912 14.1456 12.8912 15C12.8912 15.8544 13.0602 16.7003 13.3885 17.4891C13.7168 18.2779 14.1979 18.9939 14.804 19.596ZM15.511 11.111C16.2802 10.3418 17.2602 9.81794 18.3271 9.6057C19.394 9.39346 20.4999 9.50237 21.5049 9.91864C22.5099 10.3349 23.3689 11.0399 23.9733 11.9443C24.5776 12.8488 24.9002 13.9122 24.9002 15C24.9002 16.0878 24.5776 17.1512 23.9733 18.0557C23.3689 18.9601 22.5099 19.6651 21.5049 20.0814C20.4999 20.4976 19.394 20.6065 18.3271 20.3943C17.2602 20.1821 16.2802 19.6582 15.511 18.889C14.9983 18.3794 14.5915 17.7734 14.3139 17.106C14.0362 16.4386 13.8933 15.7229 13.8933 15C13.8933 14.2771 14.0362 13.5614 14.3139 12.894C14.5915 12.2266 14.9983 11.6206 15.511 11.111Z" fill="black"/>
</g>
<defs>
<clipPath id="clip0_24_418">
<rect width="32" height="32" fill="white" transform="translate(0.400024)"/>
</clipPath>
</defs>
</svg>
