<svg width="63" height="62" viewBox="0 0 63 62" fill="none" xmlns="http://www.w3.org/2000/svg">
<g clip-path="url(#clip0_1025_15458)">
<path d="M60.4002 54.23C60.4002 54.41 60.2602 54.55 60.0902 54.55H54.2902C54.1202 54.55 53.9802 54.41 53.9802 54.23V24.03C53.9802 23.85 54.1202 23.72 54.2902 23.72H60.0902C60.2602 23.72 60.4002 23.86 60.4002 24.03V54.23ZM52.0902 28.21V52.43H40.3402V28.31C40.8502 28.77 41.3402 29.31 41.7902 29.99C41.9702 30.27 42.2702 30.41 42.5802 30.41C42.7602 30.41 42.9402 30.36 43.1002 30.25C43.5302 29.96 43.6502 29.38 43.3602 28.94C40.6602 24.85 36.9302 24.37 34.3602 24.37H28.9102C27.8602 24.37 26.8702 23.91 26.2002 23.1C25.5202 22.28 25.2602 21.23 25.4602 20.16C25.7702 18.56 27.3202 17.35 29.0802 17.35H38.5902C40.4402 17.35 42.1902 18.07 43.5002 19.38L47.6902 23.57C48.9602 24.9 50.9602 25.46 52.0902 25.69V28.19V28.21ZM35.8302 57.18C35.1302 57.18 34.4802 56.91 33.9802 56.41C33.4802 55.92 33.2102 55.26 33.2102 54.56V38.35C33.2102 37.83 32.7902 37.41 32.2702 37.41C31.7502 37.41 31.3302 37.83 31.3302 38.35V57.09C31.3302 58.53 30.1602 59.71 28.7202 59.71C28.0202 59.71 27.3702 59.43 26.8702 58.94C26.3802 58.44 26.1102 57.79 26.1102 57.09V38.35C26.1102 37.83 25.6902 37.41 25.1702 37.41C24.6502 37.41 24.2302 37.83 24.2302 38.35V57.09C24.2302 58.53 23.0602 59.71 21.6202 59.71C20.1802 59.71 19.0102 58.54 19.0102 57.09V38.35C19.0102 37.83 18.5802 37.41 18.0602 37.41C17.5402 37.41 17.1202 37.83 17.1202 38.35V53.64C17.1202 54.34 16.8502 54.99 16.3502 55.49C15.8602 55.98 15.2002 56.26 14.5002 56.26C13.0602 56.26 11.8802 55.08 11.8802 53.64V10.21H38.4602V15.47H29.0902C26.4002 15.47 24.1002 17.3 23.6202 19.81C23.3102 21.42 23.7202 23.06 24.7502 24.31C25.7802 25.56 27.3002 26.27 28.9202 26.27H34.3702C35.6202 26.27 37.0602 26.42 38.4602 27.05V54.56C38.4602 56 37.2902 57.18 35.8502 57.18M10.9202 8.32H10.0502C9.88023 8.32 9.74023 8.18 9.74023 8.01V2.2C9.74023 2.03 9.88023 1.88 10.0502 1.88H40.2502C40.4202 1.88 40.5602 2.02 40.5602 2.2V8C40.5602 8.17 40.4202 8.31 40.2502 8.31H10.9202V8.32ZM4.42023 49.8C4.42023 49.1 4.69023 48.45 5.18023 47.95C5.67023 47.47 6.31023 47.19 6.99023 47.18H9.97023V52.41H7.03023C5.59023 52.41 4.41023 51.23 4.41023 49.79M1.89023 42.69C1.89023 41.99 2.16023 41.34 2.66023 40.84C3.15023 40.35 3.81023 40.08 4.51023 40.08H9.98023V45.3H7.04023C7.04023 45.3 7.00023 45.3 6.98023 45.3H4.51023C3.07023 45.3 1.89023 44.13 1.89023 42.69ZM2.66023 33.72C3.15023 33.23 3.81023 32.95 4.51023 32.95H7.87023H7.96023H9.98023V38.18H4.51023C3.07023 38.18 1.89023 37.01 1.89023 35.57C1.89023 34.87 2.16023 34.21 2.66023 33.72ZM6.10023 26.61C6.60023 26.11 7.25023 25.84 7.95023 25.84H9.97023V31.07H7.88023C6.47023 31.03 5.33023 29.87 5.33023 28.45C5.33023 27.75 5.60023 27.09 6.09023 26.6M60.0902 21.83H54.2902C53.1602 21.83 52.2402 22.68 52.1202 23.78C51.2002 23.57 49.8702 23.13 49.0502 22.27L44.8402 18.06C43.5902 16.81 42.0302 15.98 40.3402 15.65V10.21C41.5202 10.17 42.4702 9.2 42.4702 8.01V2.2C42.4702 0.99 41.4802 0 40.2702 0H10.0502C8.84023 0 7.85023 0.99 7.85023 2.2V8C7.85023 9.19 8.80023 10.15 9.97023 10.2V23.95H7.95023C6.75023 23.95 5.62023 24.42 4.77023 25.27C3.92023 26.12 3.45023 27.25 3.45023 28.45C3.45023 29.43 3.76023 30.33 4.29023 31.07C3.17023 31.12 2.12023 31.59 1.32023 32.38C0.470234 33.23 0.000234375 34.37 0.000234375 35.57C0.000234375 37.01 0.680234 38.3 1.74023 39.12C1.59023 39.24 1.45023 39.36 1.31023 39.5C0.460234 40.35 -0.00976562 41.48 -0.00976562 42.68C-0.00976562 44.8 1.47023 46.58 3.45023 47.06C2.85023 47.84 2.52023 48.8 2.52023 49.8C2.52023 52.28 4.54023 54.3 7.03023 54.31H10.0402C10.3602 56.48 12.2202 58.15 14.4802 58.15C15.4302 58.15 16.3402 57.86 17.1002 57.31C17.2102 59.69 19.1902 61.59 21.6002 61.59C23.0502 61.59 24.3302 60.91 25.1602 59.84C25.2802 59.99 25.4002 60.13 25.5402 60.27C26.3902 61.12 27.5202 61.59 28.7302 61.59C30.8502 61.59 32.6302 60.11 33.1102 58.13C33.8902 58.73 34.8502 59.06 35.8502 59.06C38.3302 59.06 40.3502 57.04 40.3502 54.55V54.29H52.1102C52.1502 55.47 53.1202 56.41 54.3002 56.41H60.1002C61.3102 56.41 62.3002 55.42 62.3002 54.21V24.01C62.3002 22.8 61.3102 21.81 60.1002 21.81" fill="#EE2A7B"/>
<path d="M57.19 50.3896C56.67 50.3896 56.25 50.8097 56.25 51.3297C56.25 51.8497 56.67 52.2696 57.19 52.2696C57.71 52.2696 58.13 51.8497 58.13 51.3297C58.13 50.8097 57.71 50.3896 57.19 50.3896Z" fill="#EE2A7B"/>
<path d="M37.3502 4.16016C36.8302 4.16016 36.4102 4.58016 36.4102 5.10016C36.4102 5.62016 36.8302 6.04016 37.3502 6.04016C37.8702 6.04016 38.2902 5.62016 38.2902 5.10016C38.2902 4.58016 37.8702 4.16016 37.3502 4.16016Z" fill="#EE2A7B"/>
</g>
<defs>
<clipPath id="clip0_1025_15458">
<rect width="62.29" height="61.6" fill="white"/>
</clipPath>
</defs>
</svg>
