<svg width="58" height="58" viewBox="0 0 58 58" fill="none" xmlns="http://www.w3.org/2000/svg">
<g clip-path="url(#clip0_1025_15439)">
<path d="M56.2405 19.8517L51.2963 14.9074C51.1007 14.7118 50.8214 14.6187 50.542 14.6653C50.2627 14.7118 50.0206 14.8794 49.8996 15.1308C49.8064 15.3078 40.8117 32.1612 7.25387 38.7536C36.9569 24.2466 43.0371 8.3336 43.2979 7.62594C43.4189 7.30005 43.3351 6.94622 43.093 6.70413L38.1487 1.75983H56.2405V19.8517ZM57.1251 0H36.0351C35.6812 0 35.3553 0.21416 35.225 0.540055C35.0853 0.86595 35.1691 1.24771 35.4112 1.49912L41.4356 7.52352C40.0482 10.5311 31.4632 26.472 0.531122 39.9082C0.130737 40.0851 -0.0834226 40.532 0.0376241 40.951C0.14936 41.3328 0.493877 41.5935 0.884951 41.5935C0.922196 41.5935 0.968753 41.5935 1.006 41.5842C36.0537 36.5934 48.177 21.118 50.8586 16.9465L56.5013 22.5892C56.7527 22.8406 57.1344 22.9151 57.4603 22.7847C57.7862 22.645 58.0004 22.3285 58.0004 21.9746V0.884572C58.0004 0.391074 57.6093 0 57.1251 0Z" fill="#EE2A7B"/>
<path d="M57.1247 56.2397H1.75983V47.7385C1.75983 47.2544 1.36876 46.8633 0.884572 46.8633C0.400385 46.8633 0 47.2637 0 47.7479V57.1243C0 57.6085 0.391074 57.9996 0.875261 57.9996H57.1154C57.5996 57.9996 57.9907 57.6085 57.9907 57.1243C57.9907 56.6401 57.5996 56.2491 57.1154 56.2491" fill="#EE2A7B"/>
<path d="M11.1372 52.4322V46.054C11.1372 45.5698 10.7462 45.1787 10.262 45.1787C9.77779 45.1787 9.38672 45.5698 9.38672 46.054V52.4322C9.38672 52.9164 9.77779 53.3075 10.262 53.3075C10.7462 53.3075 11.1372 52.9164 11.1372 52.4322Z" fill="#EE2A7B"/>
<path d="M20.5044 52.4317V43.5208C20.5044 43.0366 20.1134 42.6455 19.6292 42.6455C19.145 42.6455 18.7539 43.0366 18.7539 43.5208V52.4317C18.7539 52.9159 19.1543 53.3069 19.6292 53.3069C20.104 53.3069 20.5044 52.9159 20.5044 52.4317Z" fill="#EE2A7B"/>
<path d="M29.8794 52.4322V39.8899C29.8794 39.4057 29.4884 39.0146 29.0042 39.0146C28.52 39.0146 28.1289 39.4057 28.1289 39.8899V52.4322C28.1289 52.9164 28.5293 53.3075 29.0042 53.3075C29.479 53.3075 29.8794 52.9164 29.8794 52.4322Z" fill="#EE2A7B"/>
<path d="M39.2564 52.4322V34.6663C39.2564 34.1821 38.8653 33.791 38.3811 33.791C37.8969 33.791 37.5059 34.1821 37.5059 34.6663V52.4322C37.5059 52.9164 37.8969 53.3075 38.3811 53.3075C38.8653 53.3075 39.2564 52.9164 39.2564 52.4322Z" fill="#EE2A7B"/>
<path d="M48.6236 52.4323V28.2229C48.6236 27.7387 48.2325 27.3477 47.7483 27.3477C47.2641 27.3477 46.873 27.7387 46.873 28.2229V52.4323C46.873 52.9164 47.2641 53.3075 47.7483 53.3075C48.2325 53.3075 48.6236 52.9164 48.6236 52.4323Z" fill="#EE2A7B"/>
<path d="M57.1253 27.3564C56.6411 27.3564 56.25 27.7475 56.25 28.2317V52.441C56.25 52.9252 56.6411 53.3163 57.1253 53.3163C57.6094 53.3163 58.0005 52.9252 58.0005 52.441V28.2317C58.0005 27.7475 57.6094 27.3564 57.1253 27.3564Z" fill="#EE2A7B"/>
<path d="M0.875261 34.5635C1.35945 34.5635 1.75052 34.1724 1.75052 33.6882V26.3696H5.55884C6.04302 26.3696 6.4341 25.9785 6.4341 25.4943C6.4341 25.0101 6.04302 24.619 5.55884 24.619H1.75983V18.1756H5.56815C6.05234 18.1756 6.44341 17.7846 6.44341 17.3004C6.44341 16.8162 6.05234 16.4251 5.56815 16.4251H1.75983V9.9817H5.56815C6.05234 9.9817 6.44341 9.59062 6.44341 9.10644C6.44341 8.62225 6.05234 8.23118 5.56815 8.23118H1.75983V1.75983H5.56815C6.05234 1.75983 6.44341 1.36876 6.44341 0.884572C6.44341 0.400385 6.05234 0 5.56815 0H0.875261C0.391074 0 0 0.391074 0 0.884572V33.6882C0 34.1724 0.391074 34.5635 0.875261 34.5635Z" fill="#EE2A7B"/>
</g>
<defs>
<clipPath id="clip0_1025_15439">
<rect width="58" height="58" fill="white"/>
</clipPath>
</defs>
</svg>
