<svg width="63" height="64" viewBox="0 0 63 64" fill="none" xmlns="http://www.w3.org/2000/svg">
<path d="M50.5331 3.64784C51.6631 2.49648 53.1431 1.9259 54.6231 1.9259C56.1031 1.9259 57.5831 2.49648 58.7131 3.64784C59.8031 4.75844 60.4031 6.23585 60.4031 7.81515C60.4031 9.39445 59.8031 10.8719 58.7131 11.9825C56.4631 14.275 52.7931 14.275 50.5431 11.9825C49.4531 10.8719 48.8531 9.39445 48.8531 7.81515C48.8531 6.23585 49.4531 4.75844 50.5431 3.64784M54.6231 15.6199C56.5831 15.6199 58.5531 14.8558 60.0431 13.3376C61.4931 11.8602 62.2931 9.9039 62.2931 7.81515C62.2931 5.7264 61.4931 3.77011 60.0431 2.2927C57.0531 -0.753817 52.1931 -0.753817 49.2031 2.2927C47.7531 3.77011 46.9531 5.7264 46.9531 7.81515C46.9531 9.9039 47.7531 11.8602 49.2031 13.3376C50.6931 14.8558 52.6631 15.6199 54.6231 15.6199Z" fill="#EE2A7B"/>
<path d="M55.2933 8.48759C55.6633 8.1106 55.6633 7.49926 55.2933 7.13245C54.9233 6.76565 54.3233 6.75546 53.9533 7.13245C53.5833 7.50945 53.5833 8.12079 53.9533 8.48759C54.3233 8.86459 54.9233 8.86459 55.2933 8.48759Z" fill="#EE2A7B"/>
<path d="M11.7525 59.8194C10.6625 60.93 9.2125 61.5413 7.6625 61.5413C6.1125 61.5413 4.6625 60.93 3.5725 59.8194C1.3225 57.5268 1.3225 53.7875 3.5725 51.4949C4.7025 50.3436 6.1825 49.773 7.6625 49.773C9.1425 49.773 10.6225 50.3538 11.7525 51.4949C12.8425 52.6055 13.4425 54.083 13.4425 55.6623C13.4425 57.2416 12.8425 58.7088 11.7525 59.8296M2.2425 50.1296C-0.7475 53.1761 -0.7475 58.128 2.2425 61.1745C3.6925 62.6519 5.6125 63.467 7.6625 63.467C9.7125 63.467 11.6325 62.6519 13.0825 61.1745C14.5325 59.6971 15.3225 57.7408 15.3225 55.6521C15.3225 53.5633 14.5225 51.607 13.0825 50.1296C10.0925 47.0831 5.2325 47.0831 2.2425 50.1296Z" fill="#EE2A7B"/>
<path d="M3.5725 3.64767C4.6625 2.53707 6.1125 1.92573 7.6625 1.92573C9.2125 1.92573 10.6625 2.53707 11.7525 3.64767C12.8425 4.75827 13.4425 6.23568 13.4425 7.81498C13.4425 9.39428 12.8425 10.8717 11.7525 11.9823C9.5025 14.2748 5.8325 14.2748 3.5825 11.9823C1.3325 9.68976 1.3325 5.95039 3.5825 3.65786M7.6625 15.6198C9.6225 15.6198 11.5925 14.8556 13.0825 13.3374C14.5325 11.86 15.3325 9.90373 15.3325 7.81498C15.3325 5.72623 14.5325 3.76994 13.0825 2.29253C11.6325 0.815122 9.7125 0 7.6625 0C5.6125 0 3.6925 0.815122 2.2425 2.29253C-0.7475 5.33905 -0.7475 10.2909 2.2425 13.3374C3.7325 14.8556 5.7025 15.6198 7.6625 15.6198Z" fill="#EE2A7B"/>
<path d="M8.33211 8.48759C8.70211 8.1106 8.70211 7.49926 8.33211 7.13245C7.96211 6.76565 7.36211 6.75546 7.00211 7.13245C6.63211 7.50945 6.63211 8.12079 7.00211 8.48759C7.37211 8.86459 7.97211 8.86459 8.33211 8.48759Z" fill="#EE2A7B"/>
<path d="M53.9533 54.98C53.5833 55.357 53.5833 55.9683 53.9533 56.3453C54.3233 56.7223 54.9233 56.7223 55.2933 56.3453C55.6633 55.9683 55.6633 55.357 55.2933 54.98C54.9233 54.603 54.3233 54.603 53.9533 54.98Z" fill="#EE2A7B"/>
<path d="M7.00211 54.98C6.63211 55.357 6.63211 55.9683 7.00211 56.3453C7.37211 56.7223 7.97211 56.7223 8.33211 56.3453C8.70211 55.9683 8.70211 55.357 8.33211 54.98C7.96211 54.603 7.36211 54.603 7.00211 54.98Z" fill="#EE2A7B"/>
<path d="M58.7131 59.8194C56.4531 62.1119 52.7931 62.1119 50.5431 59.8194C49.4531 58.7088 48.8531 57.2314 48.8531 55.6521C48.8531 54.0728 49.4531 52.5954 50.5431 51.4848C51.6731 50.3334 53.1531 49.7628 54.6331 49.7628C56.1131 49.7628 57.5931 50.3334 58.7231 51.4848C59.8131 52.5954 60.4131 54.0728 60.4131 55.6521C60.4131 57.2314 59.8131 58.6986 58.7231 59.8194M49.2031 50.1296C47.7531 51.607 46.9531 53.5633 46.9531 55.6521C46.9531 57.7408 47.7531 59.6971 49.2031 61.1745C50.6931 62.6927 52.6631 63.4569 54.6231 63.4569C56.5831 63.4569 58.5531 62.6927 60.0431 61.1745C61.4931 59.6971 62.2931 57.7408 62.2931 55.6521C62.2931 53.5633 61.4931 51.607 60.0431 50.1296C57.0531 47.0831 52.1931 47.0831 49.2031 50.1296Z" fill="#EE2A7B"/>
<path d="M14.2716 14.5396C13.9016 14.9166 13.9016 15.5279 14.2716 15.9049L19.0716 20.7956C19.2516 20.979 19.5016 21.0809 19.7416 21.0809C19.9816 21.0809 20.2216 20.9892 20.4116 20.7956C20.7816 20.4186 20.7816 19.8073 20.4116 19.4405L15.6016 14.5396C15.2316 14.1626 14.6316 14.1626 14.2716 14.5396Z" fill="#EE2A7B"/>
<path d="M48.0227 48.928C48.3927 48.551 48.3927 47.9397 48.0227 47.5729L43.2227 42.6822C42.8527 42.3052 42.2527 42.3052 41.8927 42.6822C41.5227 43.0592 41.5227 43.6705 41.8927 44.0373L46.6927 48.928C46.8727 49.1114 47.1227 49.2133 47.3627 49.2133C47.6027 49.2133 47.8427 49.1216 48.0327 48.928" fill="#EE2A7B"/>
<path d="M19.0716 42.6822L14.2716 47.5729C13.9016 47.9499 13.9016 48.5612 14.2716 48.928C14.4516 49.1216 14.7016 49.2133 14.9416 49.2133C15.1816 49.2133 15.4216 49.1216 15.6116 48.928L20.4116 44.0373C20.7816 43.6603 20.7816 43.049 20.4116 42.6822C20.0416 42.3052 19.4416 42.3052 19.0816 42.6822" fill="#EE2A7B"/>
<path d="M42.5527 21.061C42.7927 21.061 43.0327 20.9693 43.2227 20.7757L48.0127 15.8951C48.3827 15.5182 48.3827 14.9068 48.0127 14.5298C47.6427 14.1528 47.0427 14.1528 46.6827 14.5298L41.8927 19.4205C41.5227 19.7975 41.5227 20.4089 41.8927 20.7757C42.0727 20.9591 42.3227 21.061 42.5627 21.061" fill="#EE2A7B"/>
<path d="M34.9216 61.5117H27.3716C26.8516 61.5117 26.4316 61.9397 26.4316 62.4695C26.4316 62.9993 26.8516 63.4273 27.3716 63.4273H34.9216C35.4416 63.4273 35.8616 62.9993 35.8616 62.4695C35.8616 61.9397 35.4416 61.5117 34.9216 61.5117Z" fill="#EE2A7B"/>
<path d="M38.5924 40.8278C37.2524 41.969 36.4924 43.6502 36.4924 45.4537V45.7695H32.0924V36.8847H34.2924C34.8124 36.8847 35.2324 36.4567 35.2324 35.9269C35.2324 35.3971 34.8124 34.959 34.2924 34.959H28.0024C27.4824 34.959 27.0624 35.3869 27.0624 35.9269C27.0624 36.4669 27.4824 36.8847 28.0024 36.8847H30.2024V45.7695H25.8024V45.4537C25.8024 43.6604 25.0224 41.9588 23.6624 40.7973C20.7224 38.2806 19.1924 34.4393 19.5624 30.5369C20.0924 25.0145 24.4024 20.5517 29.8124 19.9505C33.1824 19.5633 36.4024 20.6128 38.9024 22.8952C41.3724 25.1469 42.7824 28.3667 42.7824 31.729C42.7824 35.0914 41.2524 38.5659 38.5924 40.8278ZM40.1624 21.4585C37.2624 18.8094 33.5124 17.5969 29.6024 18.035C23.3124 18.7482 18.2924 23.9242 17.6824 30.3433C17.2524 34.8876 19.0324 39.3402 22.4524 42.2645C23.3824 43.0592 23.9124 44.2208 23.9124 45.4435V46.7273C23.9124 47.2571 24.3324 47.685 24.8524 47.685H37.4424C37.6924 47.685 37.9324 47.5832 38.1124 47.3998C38.2924 47.2164 38.3924 46.9718 38.3924 46.7273V45.4435C38.3924 44.2106 38.9124 43.0592 39.8224 42.2951C42.9124 39.6663 44.6824 35.8148 44.6824 31.7188C44.6824 27.6229 43.0424 24.0567 40.1724 21.4483" fill="#EE2A7B"/>
<path d="M37.4323 50.9043H24.8423C24.3223 50.9043 23.9023 51.3322 23.9023 51.8621C23.9023 52.3919 24.3223 52.8198 24.8423 52.8198H37.4323C37.9523 52.8198 38.3723 52.3817 38.3723 51.8621C38.3723 51.3424 37.9523 50.9043 37.4323 50.9043Z" fill="#EE2A7B"/>
<path d="M37.4323 56.04H24.8423C24.3223 56.04 23.9023 56.468 23.9023 56.9978C23.9023 57.5276 24.3223 57.9556 24.8423 57.9556H37.4323C37.9523 57.9556 38.3723 57.5174 38.3723 56.9978C38.3723 56.4782 37.9523 56.04 37.4323 56.04Z" fill="#EE2A7B"/>
</svg>
