<svg xmlns="http://www.w3.org/2000/svg" width="63" height="62" fill="none" viewBox="0 0 63 62"><g clip-path="url(#clip0_1025_15455)"><path fill="#EE2A7B" d="M20.2506 1.98956C20.5306 1.91956 20.8006 1.87956 21.0706 1.87956C22.5106 1.87956 23.8206 2.83956 24.2006 4.29956C24.6506 6.02956 23.6206 7.79956 21.8906 8.24956C20.1706 8.69956 18.3906 7.66956 17.9406 5.93956C17.4906 4.21956 18.5306 2.43956 20.2506 1.98956ZM21.0706 10.2496C21.5006 10.2496 21.9306 10.1996 22.3706 10.0796C25.1006 9.35956 26.7406 6.55956 26.0306 3.81956C25.3106 1.08956 22.5106 -0.550444 19.7806 0.169556C17.0506 0.889556 15.4106 3.68956 16.1206 6.41956C16.7206 8.71956 18.8006 10.2396 21.0806 10.2396"/><path fill="#EE2A7B" d="M60.4 60.0902H47.19V46.8802H60.4V60.0902ZM45.3 60.0902H32.09V51.9102H45.3V60.0902ZM28.84 33.4102C28.69 33.3102 28.51 33.2602 28.33 33.2602C28.25 33.2602 28.17 33.2702 28.09 33.2902C27.83 33.3502 27.62 33.5302 27.49 33.7602L23.32 41.7402C23.32 41.7402 23.25 41.8402 23.23 41.8702C23.19 41.9402 23.14 42.0102 23.09 42.0802L23 42.1802C22.95 42.2302 22.9 42.2902 22.84 42.3402C22.84 42.3402 22.75 42.4202 22.74 42.4202C22.68 42.4702 22.6 42.5102 22.45 42.6002C22.34 42.6502 22.24 42.6902 22.12 42.7202C22.02 42.7502 21.92 42.7602 21.82 42.7702L12.47 43.6102C11.56 43.7002 10.74 43.1602 10.5 42.3502C10.34 41.8002 10.42 41.2502 10.73 40.7802C11.04 40.3302 11.53 40.0402 12.07 39.9902L19.99 39.2802C20.31 39.2502 20.59 39.0602 20.74 38.7802L23.8 32.9402C23.91 32.7302 23.94 32.4902 23.88 32.2702L20.37 18.9102C20.29 18.6102 20.07 18.3702 19.78 18.2602C19.49 18.1502 19.17 18.2002 18.92 18.3702L15.89 20.4802C15.68 20.6302 15.53 20.8602 15.5 21.1102L14.14 29.8902C14.05 30.4502 13.64 30.9002 13.09 31.0502C12.83 31.1202 12.55 31.1102 12.29 31.0202C11.64 30.8102 11.23 30.0902 11.34 29.3502L12.83 19.7102C12.83 19.7102 12.84 19.6702 12.84 19.6502C12.84 19.6102 12.86 19.5602 12.89 19.4802C12.89 19.4802 12.93 19.3502 12.93 19.3402L13.02 19.1502C13.02 19.1502 13.1 19.0502 13.11 19.0302C13.14 18.9902 13.17 18.9402 13.26 18.8602C13.31 18.8102 13.36 18.7602 13.44 18.7002C13.44 18.7002 13.46 18.6902 13.46 18.6802L18.41 15.2402C21.13 13.3502 24.52 12.7502 27.72 13.5802L32.82 14.9002C33.89 15.1802 35.03 14.9202 35.87 14.2102L40.87 9.98019C41.5 9.45019 42.42 9.47019 42.93 10.0102C43.2 10.3002 43.34 10.6702 43.32 11.0702C43.3 11.4602 43.12 11.8202 42.82 12.0702L35.76 18.0202C35.76 18.0202 35.58 18.1402 35.57 18.1502C35.46 18.2102 35.36 18.2602 35.26 18.2802C35.16 18.3102 35.06 18.3202 34.89 18.3202C34.79 18.3202 34.69 18.3002 34.56 18.2802C34.54 18.2802 34.51 18.2702 34.48 18.2602L29.14 16.8702C28.82 16.7902 28.47 16.8802 28.23 17.1202C27.99 17.3602 27.9 17.7002 27.99 18.0302L31.21 30.3002C31.27 30.5302 31.42 30.7302 31.61 30.8502L39.45 35.8802C39.45 35.8802 39.54 35.9602 39.56 35.9702C39.61 36.0102 39.67 36.0502 39.72 36.1002C39.76 36.1402 39.8 36.1802 39.83 36.2202C39.87 36.2602 39.91 36.3002 39.94 36.3502C39.97 36.4002 40.01 36.4502 40.04 36.5002C40.07 36.5502 40.1 36.6002 40.13 36.6602C40.15 36.7102 40.17 36.7602 40.19 36.8202C40.21 36.8802 40.23 36.9302 40.25 36.9902C40.27 37.0402 40.27 37.1002 40.28 37.1602C40.28 37.2202 40.3 37.2702 40.3 37.3202C40.3 37.3902 40.3 37.4502 40.3 37.5302V37.6302L39.05 48.4102C38.96 49.1602 38.43 49.7702 37.7 49.9602C37.65 49.9702 37.6 49.9702 37.56 49.9802H36.94C36.86 49.9702 36.77 49.9702 36.69 49.9402C35.87 49.6902 35.34 48.8102 35.44 47.9002L36.48 38.9202C36.52 38.5602 36.36 38.2102 36.05 38.0202L28.81 33.3702L28.84 33.4102ZM30.2 60.0902H16.99V56.9402H30.2V60.0902ZM61.34 44.9902H46.24C45.72 44.9902 45.3 45.4102 45.3 45.9302V50.0202H40.48C40.71 49.6102 40.88 49.1602 40.94 48.6702L42.19 37.8902C42.2 37.8002 42.2 37.7202 42.19 37.6402C42.19 37.5102 42.2 37.3802 42.19 37.2502C42.19 37.1302 42.17 37.0102 42.15 36.9002C42.13 36.7802 42.11 36.6602 42.09 36.5502C42.06 36.4302 42.02 36.3202 41.98 36.2102C41.94 36.1002 41.9 35.9802 41.84 35.8702C41.79 35.7702 41.74 35.6702 41.67 35.5602C41.61 35.4602 41.55 35.3602 41.47 35.2602C41.4 35.1602 41.32 35.0702 41.24 34.9802C41.16 34.8902 41.08 34.8002 41 34.7302C40.9 34.6402 40.79 34.5602 40.68 34.4802C40.65 34.4502 40.53 34.3602 40.5 34.3402L32.94 29.4902L30.23 19.1402L34.09 20.1402C34.09 20.1402 34.15 20.1502 34.19 20.1602C34.43 20.2102 34.68 20.2402 34.99 20.2402C35.25 20.2402 35.49 20.2002 35.71 20.1502C35.71 20.1502 35.72 20.1502 35.73 20.1502H35.75C35.99 20.0802 36.24 19.9802 36.49 19.8502C36.51 19.8502 36.75 19.6802 36.77 19.6702C36.87 19.6102 36.96 19.5502 37.05 19.4802L44.07 13.5602C44.76 12.9802 45.19 12.1202 45.24 11.2202C45.29 10.3102 44.98 9.43019 44.35 8.76019C43.14 7.48019 41.1 7.40019 39.7 8.58019L34.7 12.8002C34.32 13.1202 33.82 13.2302 33.34 13.1102L28.23 11.7902C24.49 10.8202 20.53 11.5302 17.37 13.7302L12.4 17.1802C12.4 17.1802 12.35 17.2102 12.33 17.2302C12.21 17.3202 12.09 17.4202 12 17.5202C11.97 17.5502 11.9 17.6102 11.87 17.6402C11.78 17.7402 11.69 17.8502 11.59 17.9902C11.57 18.0202 11.49 18.1202 11.47 18.1502C11.42 18.2302 11.38 18.3102 11.29 18.4902C11.25 18.5702 11.21 18.6502 11.18 18.7302C11.15 18.8002 11.13 18.8702 11.1 19.0002C11.07 19.1002 11.05 19.1902 11.02 19.3002C11.02 19.3302 11.01 19.3702 11 19.4002L9.5 29.0802C9.24 30.7302 10.21 32.3502 11.74 32.8402C12.35 33.0302 12.99 33.0502 13.6 32.8902C14.88 32.5602 15.83 31.5002 16.03 30.1902L17.33 21.8102L18.92 20.7102L21.99 32.4102L19.34 37.4702L11.93 38.1302C10.82 38.2302 9.82 38.8202 9.19 39.7402C8.56 40.6602 8.39 41.8202 8.71 42.9002C9.21 44.5702 10.87 45.6602 12.66 45.5002L22.01 44.6702C22.22 44.6502 22.43 44.6102 22.62 44.5602C22.85 44.5002 23.08 44.4102 23.3 44.3102C23.35 44.2902 23.4 44.2602 23.45 44.2202C23.61 44.1402 23.76 44.0502 23.89 43.9402C23.95 43.9002 24 43.8502 24.09 43.7802C24.2 43.6802 24.32 43.5702 24.42 43.4602C24.48 43.4002 24.53 43.3302 24.59 43.2502C24.7 43.1102 24.79 42.9702 24.85 42.8602C24.88 42.8202 24.94 42.7302 24.96 42.6902L28.7 35.5602L34.57 39.3302L33.6 47.7202C33.5 48.5502 33.68 49.3402 34.05 50.0202H31.15C30.63 50.0202 30.21 50.4502 30.21 50.9602V55.0502H16.05C15.53 55.0502 15.11 55.4702 15.11 55.9902V60.0802H0.94C0.42 60.0802 0 60.5002 0 61.0302C0 61.5602 0.42 61.9702 0.94 61.9702H61.34C61.86 61.9702 62.28 61.5502 62.28 61.0302V45.9302C62.28 45.4102 61.86 44.9902 61.34 44.9902Z"/></g><defs><clipPath id="clip0_1025_15455"><rect width="62.29" height="61.98" fill="#fff"/></clipPath></defs></svg>