<svg width="59" height="59" viewBox="0 0 59 59" fill="none" xmlns="http://www.w3.org/2000/svg">
<g clip-path="url(#clip0_1025_15462)">
<mask id="mask0_1025_15462" style="mask-type:luminance" maskUnits="userSpaceOnUse" x="0" y="0" width="59" height="59">
<path d="M59 0H0V59H59V0Z" fill="white"/>
</mask>
<g mask="url(#mask0_1025_15462)">
<path d="M58.4335 31.8085C53.2069 23.6952 52.8798 21.4245 52.8682 21.3083C50.5322 1.53903 34.461 0 29.5964 0C29.1467 0 28.7554 0.0116153 28.4576 0.017423L28.0254 0.0290383C26.0516 0.0290383 11.6855 0.447189 6.26032 11.8418H0.899337C0.40295 11.8418 0 12.2425 0 12.7362V36.5766C0 37.0703 0.40295 37.471 0.899337 37.471H7.27061C8.3393 39.4979 9.54231 41.0195 10.6519 42.3727C11.6855 43.6271 12.579 44.7132 13.1805 46.0315C14.9033 49.8181 15.0084 58.0359 15.0084 58.1172C15.0084 58.6109 15.4172 59.0058 15.9078 59.0058H15.9194C16.4158 59.0058 16.8129 58.5935 16.8071 58.0998C16.8071 57.7455 16.702 49.4232 14.8157 45.2939C14.1208 43.7607 13.1105 42.5353 12.0476 41.2402C11.1658 40.1658 10.2139 38.9752 9.32624 37.471H24.8661C25.3625 37.471 25.7654 37.0703 25.7654 36.5766V30.0024C25.7654 29.5087 25.3625 29.108 24.8661 29.108C24.3697 29.108 23.9667 29.5087 23.9667 30.0024V35.6823H1.79867V13.6306H24.8719C25.3683 13.6306 25.7713 13.2298 25.7713 12.7362C25.7713 12.2425 25.3683 11.8418 24.8719 11.8418H8.26339C13.2973 2.43341 25.1464 1.8178 28.0196 1.8178C28.1364 1.8178 28.2999 1.8178 28.4985 1.80618C28.7905 1.80037 29.1642 1.78876 29.5905 1.78876C34.0814 1.78876 48.9146 3.21164 51.0695 21.4593C51.0812 21.709 51.3556 24.1424 56.9327 32.8017C56.9327 32.8017 57.2948 33.3418 57.1721 33.8645C57.0962 34.2013 56.8159 34.5091 56.3487 34.7763C54.1646 36.0365 51.525 37.0587 51.4958 37.0645C51.1162 37.2097 50.8826 37.593 50.9235 37.9937C50.9293 38.0576 51.6243 44.5447 51.0228 47.7099C50.7658 49.0457 47.7233 49.9517 43.4485 49.9517C41.0425 49.9517 39.4832 51.4442 39.4832 53.7615V58.0998C39.4832 58.5935 39.8862 58.9942 40.3826 58.9942C40.8789 58.9942 41.2819 58.5935 41.2819 58.0998V53.7615C41.2819 52.0018 42.6426 51.7404 43.4485 51.7404C46.6721 51.7404 52.1674 51.2584 52.7864 48.0468C53.3295 45.2184 52.9441 40.2819 52.7806 38.4757C53.7325 38.0866 55.5837 37.2794 57.2422 36.3211C58.3985 35.659 58.7956 34.8169 58.9241 34.2303C59.2044 32.9527 58.4803 31.884 58.4219 31.8027" fill="#E71D73"/>
<path d="M32.2707 12.1031L15.5162 28.7653L7.87182 21.1631C7.52143 20.8088 6.95496 20.8088 6.59873 21.1631C6.24834 21.5115 6.24834 22.0749 6.59873 22.4234L14.8796 30.6586C15.0548 30.8328 15.2884 30.92 15.5162 30.92C15.7439 30.92 15.9775 30.8328 16.1527 30.6586L33.5438 13.3692C33.8942 13.0149 33.8942 12.4516 33.5438 12.1031C33.1934 11.7547 32.6211 11.7547 32.2707 12.1031Z" fill="#E71D73"/>
</g>
</g>
<defs>
<clipPath id="clip0_1025_15462">
<rect width="59" height="59" fill="white"/>
</clipPath>
</defs>
</svg>
