<svg width="60" height="60" viewBox="0 0 60 60" fill="none" xmlns="http://www.w3.org/2000/svg">
<g clip-path="url(#clip0_1025_15449)">
<mask id="mask0_1025_15449" style="mask-type:luminance" maskUnits="userSpaceOnUse" x="0" y="0" width="60" height="60">
<path d="M60 0H0V60H60V0Z" fill="white"/>
</mask>
<g mask="url(#mask0_1025_15449)">
<path d="M58.1405 35.2496L57.0005 39.5196C56.9205 39.8196 56.6205 39.9896 56.3205 39.9096L52.4905 38.8796C52.0505 38.7596 51.5905 38.9796 51.4105 39.3996C50.7205 40.9796 49.8505 42.4696 48.8505 43.8296C48.5805 44.1996 48.6205 44.7096 48.9405 45.0296L51.7405 47.8296C51.8405 47.9296 51.9005 48.0696 51.9005 48.2196C51.9005 48.3696 51.8405 48.5096 51.7405 48.6096L48.6105 51.7396C48.3905 51.9596 48.0405 51.9596 47.8305 51.7396L45.0305 48.9396C44.7105 48.6196 44.2005 48.5796 43.8305 48.8496C42.4705 49.8496 40.9705 50.7096 39.3905 51.4096C38.9705 51.5896 38.7505 52.0496 38.8705 52.4896L39.9005 56.3196C39.9805 56.6196 39.8005 56.9196 39.5105 56.9996L35.2405 58.1396C34.9505 58.2196 34.6405 58.0396 34.5605 57.7496L33.5305 53.9196C33.4205 53.5196 33.0505 53.2396 32.6405 53.2396C32.6105 53.2396 32.5705 53.2396 32.5405 53.2396C30.8405 53.4296 29.1205 53.4296 27.4205 53.2396C26.9705 53.1896 26.5505 53.4796 26.4305 53.9196L25.4005 57.7496C25.3205 58.0396 25.0205 58.2196 24.7205 58.1396L20.4505 56.9996C20.3105 56.9596 20.1905 56.8696 20.1105 56.7396C20.0405 56.6096 20.0205 56.4596 20.0605 56.3196L20.9805 52.8996L26.3705 47.5096C32.4105 48.7996 38.5605 46.9896 42.9205 42.6296C47.8305 37.7196 49.4905 30.3196 47.1405 23.7596C47.0305 23.4596 46.7805 23.2396 46.4805 23.1696C46.1705 23.0996 45.8505 23.1996 45.6305 23.4196L33.1105 35.9396C28.7305 34.6696 25.3205 31.2596 24.0505 26.8796L36.5705 14.3596C36.7905 14.1396 36.8905 13.8096 36.8205 13.5096C36.7505 13.1996 36.5305 12.9496 36.2305 12.8396C29.6705 10.4996 22.2605 12.1596 17.3605 17.0596C13.0005 21.4196 11.1905 27.5696 12.4805 33.6096L7.09054 38.9996L3.67054 39.9196C3.38054 39.9996 3.07054 39.8196 2.99054 39.5296L1.85054 35.2596C1.77054 34.9596 1.94054 34.6596 2.24054 34.5796L6.07054 33.5496C6.51054 33.4296 6.80054 33.0096 6.75054 32.5596C6.56054 30.8596 6.56054 29.1396 6.75054 27.4396C6.80054 26.9896 6.51054 26.5696 6.07054 26.4496L2.24054 25.4196C1.94054 25.3396 1.77054 25.0396 1.85054 24.7396L2.99054 20.4696C3.07054 20.1796 3.37054 19.9996 3.67054 20.0796L7.50054 21.1096C7.94054 21.2296 8.40054 21.0096 8.58054 20.5896C9.28054 19.0096 10.1405 17.5096 11.1405 16.1496C11.4105 15.7796 11.3705 15.2696 11.0505 14.9496L8.25054 12.1496C8.03054 11.9296 8.03054 11.5796 8.25054 11.3696L11.3805 8.23956C11.6005 8.01956 11.9505 8.02956 12.1605 8.23956L14.9605 11.0396C15.2805 11.3596 15.7905 11.3996 16.1605 11.1296C17.5205 10.1296 19.0205 9.26956 20.6005 8.56956C21.0205 8.38956 21.2405 7.92956 21.1205 7.48956L20.0905 3.65956C20.0105 3.35956 20.1905 3.05956 20.4805 2.97956L24.7505 1.82956C25.0505 1.74956 25.3505 1.92956 25.4305 2.21956L26.4605 6.04956C26.5805 6.48956 27.0005 6.77956 27.4505 6.72956C29.1505 6.53956 30.8705 6.53956 32.5705 6.72956C33.0205 6.77956 33.4405 6.48956 33.5605 6.04956L34.5905 2.21956C34.6705 1.92956 34.9705 1.74956 35.2705 1.82956L39.5405 2.97956C39.8405 3.05956 40.0105 3.35956 39.9305 3.65956L38.9005 7.48956C38.7805 7.92956 39.0005 8.38956 39.4205 8.56956C41.0005 9.25956 42.4905 10.1196 43.8605 11.1296C44.2305 11.3996 44.7405 11.3596 45.0605 11.0396L47.8605 8.23956C48.0705 8.02956 48.4205 8.01956 48.6405 8.23956L51.7705 11.3696C51.8705 11.4696 51.9305 11.6096 51.9305 11.7596C51.9305 11.9096 51.8705 12.0496 51.7705 12.1496L48.9705 14.9496C48.6505 15.2696 48.6105 15.7796 48.8805 16.1496C49.8805 17.5096 50.7405 18.9996 51.4405 20.5896C51.6205 21.0096 52.0905 21.2296 52.5205 21.1096L56.3505 20.0796C56.6405 19.9996 56.9505 20.1796 57.0305 20.4696L58.1705 24.7396C58.2505 25.0396 58.0705 25.3396 57.7805 25.4196L53.9505 26.4496C53.5105 26.5696 53.2205 26.9896 53.2705 27.4396C53.4605 29.1396 53.4605 30.8596 53.2705 32.5596C53.2205 33.0096 53.5105 33.4296 53.9505 33.5496L57.7805 34.5796C58.0705 34.6596 58.2505 34.9596 58.1705 35.2596M58.2305 32.7996L55.1505 31.9696C55.2505 30.6596 55.2505 29.3396 55.1505 28.0296L58.2305 27.1996C58.8505 27.0396 59.3605 26.6396 59.6805 26.0796C60.0005 25.5296 60.0805 24.8796 59.9205 24.2596L58.7805 19.9896C58.4405 18.7196 57.1305 17.9496 55.8505 18.2996L52.7705 19.1296C52.2005 17.9296 51.5405 16.7896 50.8005 15.7096L53.0505 13.4596C53.5005 13.0096 53.7505 12.4096 53.7505 11.7696C53.7505 11.1296 53.5005 10.5296 53.0505 10.0796L49.9205 6.94956C48.9805 6.00956 47.4705 6.01956 46.5305 6.94956L44.2805 9.19956C43.2005 8.45956 42.0605 7.79956 40.8605 7.22956L41.6905 4.14956C42.0305 2.86956 41.2705 1.55956 40.0005 1.21956L35.7305 0.0795616C34.4605 -0.260438 33.1405 0.499562 32.8005 1.76956L31.9705 4.84956C30.6605 4.74956 29.3405 4.74956 28.0305 4.84956L27.2005 1.76956C27.0405 1.14956 26.6405 0.639562 26.0805 0.319562C25.5305 -0.000438362 24.8805 -0.0904384 24.2605 0.0795616L19.9905 1.21956C18.7105 1.55956 17.9605 2.87956 18.3005 4.14956L19.1305 7.22956C17.9305 7.79956 16.7905 8.45956 15.7105 9.19956L13.4605 6.94956C12.5305 6.01956 11.0105 6.00956 10.0705 6.94956L6.94054 10.0796C6.01054 11.0096 6.01054 12.5296 6.94054 13.4696L9.19054 15.7196C8.45054 16.7996 7.79054 17.9396 7.22054 19.1396L4.14054 18.3096C2.86054 17.9696 1.55054 18.7296 1.21054 19.9996L0.0805382 24.2696C-0.0794618 24.8896 0.0005382 25.5296 0.320538 26.0896C0.640538 26.6396 1.16054 27.0396 1.77054 27.2096L4.85054 28.0396C4.75054 29.3496 4.75054 30.6696 4.85054 31.9796L1.77054 32.8096C1.15054 32.9796 0.640538 33.3696 0.320538 33.9296C0.0005382 34.4796 -0.0894618 35.1296 0.0805382 35.7496L1.23054 40.0196C1.57054 41.2896 2.89054 42.0496 4.16054 41.7096L7.82054 40.7296C7.98054 40.6896 8.12054 40.5996 8.23054 40.4896L14.1505 34.5696C14.3805 34.3396 14.4705 34.0096 14.3905 33.6996C13.0405 28.1296 14.6405 22.4096 18.6705 18.3796C22.7305 14.3196 28.6805 12.7396 34.2005 14.1496L22.3905 25.9596C22.1605 26.1896 22.0705 26.5196 22.1505 26.8396C23.5105 32.2896 27.7405 36.5096 33.1805 37.8696C33.4905 37.9496 33.8305 37.8596 34.0605 37.6296L45.8705 25.8196C47.2805 31.3396 45.7005 37.2896 41.6405 41.3496C37.6105 45.3796 31.8905 46.9796 26.3205 45.6296C26.0105 45.5496 25.6805 45.6396 25.4505 45.8696L19.5305 51.7896C19.4205 51.8996 19.3305 52.0496 19.2905 52.1996L18.3105 55.8596C18.1405 56.4796 18.2305 57.1196 18.5505 57.6796C18.8705 58.2296 19.3905 58.6296 20.0005 58.7996L24.2705 59.9396C24.4805 59.9996 24.6905 60.0296 24.9005 60.0296C25.3105 60.0296 25.7205 59.9196 26.0905 59.7096C26.6505 59.3896 27.0405 58.8696 27.2105 58.2496L28.0405 55.1696C29.3505 55.2696 30.6705 55.2696 31.9805 55.1696L32.8105 58.2496C33.1505 59.5296 34.4605 60.2896 35.7405 59.9396L40.0105 58.7996C41.2905 58.4596 42.0505 57.1396 41.7005 55.8696L40.8705 52.7896C42.0705 52.2196 43.2105 51.5596 44.2905 50.8196L46.5405 53.0696C47.4705 53.9996 48.9905 53.9996 49.9305 53.0696L53.0605 49.9396C53.5105 49.4896 53.7605 48.8896 53.7605 48.2496C53.7605 47.6096 53.5105 47.0096 53.0605 46.5596L50.8105 44.3096C51.5505 43.2296 52.2105 42.0896 52.7805 40.8896L55.8605 41.7196C57.1305 42.0596 58.4505 41.2996 58.7905 40.0296L59.9305 35.7596C60.0905 35.1396 60.0105 34.4996 59.6905 33.9396C59.3705 33.3896 58.8505 32.9896 58.2405 32.8196" fill="#EE2A7B"/>
</g>
</g>
<defs>
<clipPath id="clip0_1025_15449">
<rect width="60" height="60" fill="white"/>
</clipPath>
</defs>
</svg>
